<svg width="20" height="21" viewBox="0 0 20 21" fill="none" xmlns="http://www.w3.org/2000/svg">
<path d="M19.9568 15.9963C19.9002 15.8259 19.5403 15.5748 18.8773 15.2437C18.6977 15.1393 18.4418 14.9974 18.1106 14.8175C17.7792 14.6375 17.4783 14.4717 17.2086 14.3202C16.9384 14.1687 16.6852 14.0219 16.4486 13.8801C16.4108 13.8517 16.2925 13.7689 16.0936 13.6313C15.8945 13.4941 15.7267 13.3923 15.5891 13.3258C15.4519 13.2598 15.3168 13.2266 15.1842 13.2266C14.9949 13.2266 14.7584 13.3616 14.4744 13.6313C14.1904 13.9014 13.9299 14.1947 13.6933 14.5122C13.4566 14.8296 13.2056 15.1229 12.9408 15.3928C12.6755 15.6628 12.4575 15.7977 12.2873 15.7977C12.2018 15.7977 12.0952 15.7739 11.9675 15.7268C11.8399 15.6795 11.7427 15.639 11.6761 15.6063C11.61 15.5729 11.4966 15.5068 11.3355 15.4071C11.1741 15.3076 11.0844 15.2532 11.0655 15.2437C9.7682 14.5238 8.65561 13.6999 7.72749 12.7722C6.79968 11.8439 5.97569 10.7314 5.25604 9.43402C5.24658 9.41507 5.19201 9.32507 5.09265 9.16417C4.99315 9.00313 4.92683 8.88964 4.8937 8.82318C4.86056 8.75696 4.82031 8.65984 4.77305 8.53203C4.72579 8.40422 4.70205 8.29775 4.70205 8.21243C4.70205 8.04208 4.83703 7.82417 5.10693 7.55899C5.37678 7.29396 5.67042 7.04292 5.98753 6.80635C6.3049 6.56978 6.59823 6.30928 6.86819 6.0253C7.13804 5.74117 7.27296 5.50455 7.27296 5.3152C7.27296 5.18271 7.23983 5.04763 7.17361 4.91037C7.10734 4.77281 7.00555 4.60495 6.86819 4.40599C6.73077 4.20713 6.64793 4.08887 6.61948 4.05081C6.47759 3.81425 6.33097 3.56096 6.17928 3.29106C6.02758 3.02121 5.86201 2.72041 5.68201 2.38901C5.50216 2.05777 5.36022 1.802 5.25594 1.6221C4.92469 0.959356 4.6738 0.599354 4.5033 0.542737C4.43698 0.514328 4.33748 0.5 4.20504 0.5C3.94921 0.5 3.61548 0.547264 3.20359 0.64209C2.79155 0.736767 2.46732 0.836071 2.23055 0.9404C1.75706 1.13916 1.25522 1.71677 0.72487 2.67305C0.241932 3.563 0.000488281 4.44385 0.000488281 5.31495C0.000488281 5.57042 0.0170555 5.81898 0.05019 6.06067C0.0833245 6.30212 0.142529 6.57441 0.227853 6.87749C0.313027 7.18048 0.381734 7.40556 0.433675 7.55212C0.485665 7.69879 0.58273 7.96153 0.72482 8.34044C0.866712 8.71924 0.952035 8.95114 0.980443 9.03636C1.31184 9.96443 1.70483 10.7929 2.15931 11.5221C2.90707 12.7342 3.92752 13.9868 5.22007 15.2794C6.51266 16.572 7.76501 17.5924 8.97715 18.3404C9.70626 18.7949 10.5351 19.1878 11.463 19.5194C11.5483 19.5477 11.7802 19.6328 12.1588 19.7752C12.5376 19.9172 12.8005 20.0143 12.9471 20.0664C13.0938 20.1185 13.319 20.1873 13.6217 20.2726C13.9251 20.3579 14.1971 20.4171 14.4386 20.4505C14.6802 20.4832 14.9288 20.5 15.1843 20.5C16.0553 20.5 16.9362 20.2585 17.8263 19.7756C18.7825 19.2454 19.36 18.7435 19.5588 18.2696C19.6634 18.0331 19.7625 17.7088 19.8572 17.2968C19.9521 16.8849 19.9993 16.5512 19.9993 16.2955C19.9996 16.1625 19.9853 16.0632 19.9568 15.9963Z" fill="white"/>
</svg>
